<?xml version="1.0" encoding="UTF-8"?>
<svg width="512" height="512" viewBox="0 0 512 512" fill="none" xmlns="http://www.w3.org/2000/svg">
  <circle cx="256" cy="256" r="256" fill="#F7931A"/>
  <path d="M347.188 237.55c6.94-46.726-28.87-71.795-77.977-88.533l15.918-63.72-38.817-9.69-15.486 62.018c-10.223-2.55-20.706-4.95-31.188-7.35l15.918-63.72-38.817-9.69-15.918 63.72c-8.45-1.92-16.737-3.83-24.877-5.83l.044-.18-53.413-13.33-10.302 41.27s28.87 6.62 28.25 7.02c15.737 3.93 18.563 14.23 18.088 22.43l-18.088 72.47c1.08.27 2.52.68 4.08 1.1-1.32-.33-2.73-.68-4.26-1.1l-26.325 105.47c-1.98.5-5.1 1.3-8.04 2.6.18.09-28.25-7.05-28.25-7.05l-19.3 44.1 50.625 12.63c9.42 2.35 18.65 4.78 27.78 7.05l-16.018 64.18 38.817 9.69 15.918-63.72c10.59 2.88 20.87 5.55 30.91 8.05l-15.878 63.6 38.817 9.69 16.018-64.18c64.612 12.21 113.188 7.27 133.588-51.02 16.318-46.726-.812-73.67-34.458-91.18 24.458-5.65 42.858-21.78 47.818-55.12zm-50.918 71.77c-11.55 46.326-89.538 21.28-114.858 15.03l20.518-82.2c25.32 6.25 106.938 18.53 94.34 67.17zm11.55-71.77c-10.318 41.326-74.258 20.33-94.958 15.15l18.563-74.38c20.7 5.18 87.218 15.35 76.395 59.23z" fill="white"/>
</svg> 